<svg width="20" height="20" viewBox="0 0 20 20" fill="none" xmlns="http://www.w3.org/2000/svg">
<path opacity="0.987" fill-rule="evenodd" clip-rule="evenodd" d="M9.01131 1.32618C9.91756 1.22493 10.4538 1.22493 11.4276 1.32618C13.1512 1.5813 14.7491 2.37804 15.9901 3.60118C15.1515 4.39385 14.3239 5.1981 13.5076 6.01368C11.9442 4.68868 10.1992 4.38285 8.27256 5.09618C6.85923 5.74618 5.87506 6.79952 5.32006 8.25618C4.41311 7.58097 3.51797 6.89003 2.63506 6.18368C2.5737 6.15138 2.50362 6.13956 2.43506 6.14993C3.83756 3.44577 6.02923 1.83743 9.01006 1.32493" fill="#F44336"/>
<path opacity="0.997" fill-rule="evenodd" clip-rule="evenodd" d="M2.43257 6.14998C2.5034 6.13915 2.57049 6.1504 2.63382 6.18373C3.51674 6.89008 4.41187 7.58102 5.31882 8.25623C5.1761 8.82381 5.08614 9.40335 5.05007 9.98748C5.0809 10.5525 5.17049 11.1071 5.31882 11.6512L2.50007 13.895C1.27257 11.33 1.25007 8.74832 2.43257 6.14998Z" fill="#FFC107"/>
<path opacity="0.999" fill-rule="evenodd" clip-rule="evenodd" d="M15.8563 16.6124C14.9787 15.8384 14.0598 15.1123 13.1038 14.4374C14.0622 13.7608 14.6438 12.8324 14.8488 11.6524H10.1526V8.39117C12.8609 8.36867 15.568 8.39159 18.2738 8.45992C18.7872 11.2474 18.1943 13.7608 16.4951 15.9999C16.293 16.2147 16.079 16.4191 15.8563 16.6124Z" fill="#448AFF"/>
<path opacity="0.993" fill-rule="evenodd" clip-rule="evenodd" d="M5.31875 11.6523C6.34375 14.1998 8.22292 15.389 10.9562 15.2198C11.7235 15.131 12.4592 14.863 13.1037 14.4373C14.0604 15.114 14.9779 15.839 15.8562 16.6123C14.4646 17.8629 12.6901 18.6049 10.8225 18.7173C10.3982 18.7513 9.97182 18.7513 9.5475 18.7173C6.36583 18.3423 4.01667 16.7348 2.5 13.8948L5.31875 11.6523Z" fill="#43A047"/>
</svg>
